#!OML:ASF I:\Actors\actors\Patient Classification 1\Patient 1\Session 1\Subject1.ASF
:FULLY-SPECIFIED
:DEGREES
1766
root 0.771724 17.6471 8.58006 19.1815 5.06845 -7.9915
lowerback 13.3015 5.11601 10.848
upperback -0.385983 8.98705 6.39086
thorax -7.28406 4.06906 -0.868998
lowerneck -5.59836 -11.5685 -1.4111
upperneck 4.70261 -15.5684 3.89733
head 2.92253 -7.63107 0.777085
rclavicle 2.22639e-014 4.13472e-014
rhumerus 65.7843 -10.1571 -71.5866
rradius 22.568
rwrist 69.0056
rhand -30.4967 -57.1753
rfingers 7.12502
rthumb -3.79711 1352.88
lclavicle 2.22639e-014 4.13472e-014
lhumerus -32.2563 -5.17216 87.8963
lradius 111.259
lwrist 76.6148
lhand -33.0098 16.6337
lfingers 7.12502
lthumb -6.22366 46.5223
rfemur -21.4161 15.9111 19.0447
rtibia 9.62193
rfoot -12.8288 -25.0759
rtoes 4.02311
lfemur -19.5696 -43.1025 5.49855
ltibia -1.28209
lfoot -12.8064 48.9774
ltoes 2.70203
1767
root 0.772423 17.6468 8.58112 19.1848 5.07416 -7.99555
lowerback 13.333 5.08077 10.8471
upperback -0.388535 8.94615 6.39567
thorax -7.30904 4.04782 -0.860362
lowerneck -5.69483 -11.5343 -1.44723
upperneck 4.7994 -15.5243 3.90548
head 2.97628 -7.60611 0.777638
rclavicle 5.24792e-014 4.77083e-015
rhumerus 65.1806 -9.89453 -68.7111
rradius 22.777
rwrist 74.87
rhand -31.5975 -57.4215
rfingers 7.12502
rthumb -4.86005 1352.65
lclavicle 5.24792e-014 4.77083e-015
lhumerus -32.3284 -5.09872 87.8345
lradius 111.31
lwrist 76.6248
lhand -33.0488 16.5638
lfingers 7.12502
lthumb -6.26132 46.4512
rfemur -21.4019 15.8922 19.0516
rtibia 9.58331
rfoot -12.7708 -25.077
rtoes 4.07132
lfemur -19.5366 -42.9677 5.45818
ltibia -1.30459
lfoot -12.5775 48.8496
ltoes 2.40807
1768
root 0.773656 17.6461 8.58188 19.2001 5.07323 -7.99223
lowerback 13.3426 5.06159 10.8597
upperback -0.390319 8.92417 6.39298
thorax -7.31594 4.0361 -0.867339
lowerneck -5.72061 -11.5137 -1.55736
upperneck 4.78347 -15.4973 4.05258
head 2.99924 -7.5896 0.839211
rclavicle -7.71285e-014 -2.8625e-014
rhumerus 64.4412 -9.43342 -65.2784
rradius 23.0874
rwrist 79.6198
rhand -32.5283 -58.1915
rfingers 7.12502
rthumb -5.75883 1351.91
lclavicle -7.71285e-014 -2.8625e-014
lhumerus -32.4078 -5.06337 87.7835
lradius 111.378
lwrist 76.653
lhand -33.1175 16.4869
lfingers 7.12502
lthumb -6.32767 46.3723
rfemur -21.4107 15.8587 19.0492
rtibia 9.56876
rfoot -12.7281 -25.067
rtoes 3.74844
lfemur -19.5312 -42.923 5.44017
ltibia -1.32499
lfoot -12.3473 48.8228
ltoes 2.02138
1769
root 0.775747 17.6456 8.58269 19.2133 5.09365 -8.00999
lowerback 13.315 5.03834 10.8488
upperback -0.373678 8.88906 6.43701
thorax -7.29407 4.02235 -0.805913
lowerneck -5.73946 -11.4822 -1.60923
upperneck 4.75762 -15.4547 4.12349
head 3.00425 -7.56724 0.87067
rclavicle 5.96354e-014 6.83819e-014
rhumerus 63.5258 -8.55705 -60.9418
rradius 23.6893
rwrist 81.9716
rhand -33.0584 -58.7262
rfingers 7.12502
rthumb -6.27058 1351.39
lclavicle 5.96354e-014 6.83819e-014
lhumerus -32.4574 -4.96559 87.7862
lradius 111.433
lwrist 76.6426
lhand -33.1431 16.448
lfingers 7.12502
lthumb -6.35236 46.3328
rfemur -21.4151 15.7868 19.087
rtibia 9.57708
rfoot -12.6903 -25.0342
rtoes 3.30356
lfemur -19.5595 -42.9709 5.4911
ltibia -1.33835
lfoot -12.4905 48.8513
ltoes 2.31161
1770
root 0.777808 17.6453 8.5829 19.2248 5.11317 -8.02794
lowerback 13.3052 5.01188 10.8255
upperback -0.345113 8.8499 6.49107
thorax -7.27296 4.00744 -0.728123
lowerneck -5.92742 -11.4409 -1.58608
upperneck 4.89007 -15.4032 4.07425
head 3.07601 -7.53735 0.838488
rclavicle 1.28017e-013 1.49486e-013
rhumerus 62.7503 -7.63485 -56.9865
rradius 24.3946
rwrist 82.7017
rhand -33.6867 -58.8487
rfingers 7.12502
rthumb -6.8771 1351.28
lclavicle 1.28017e-013 1.49486e-013
lhumerus -32.4429 -4.83514 87.798
lradius 111.446
lwrist 76.5777
lhand -33.0478 16.3477
lfingers 7.12502
lthumb -6.2604 46.2352
rfemur -21.426 15.747 19.113
rtibia 9.59063
rfoot -12.696 -25.0377
rtoes 3.19452
lfemur -19.5947 -42.9756 5.53479
ltibia -1.33238
lfoot -12.7699 48.84
ltoes 2.8968
1771
root 0.779293 17.6453 8.58277 19.2533 5.13325 -8.02353
lowerback 13.3531 5.01141 10.9246
upperback -0.351472 8.86922 6.45632
thorax -7.28533 4.01066 -0.824855
lowerneck -6.11446 -11.4782 -1.52142
upperneck 4.93649 -15.4573 4.03131
head 3.11806 -7.56079 0.798964
rclavicle 4.37326e-014 4.92986e-014
rhumerus 62.1336 -7.10164 -54.3696
rradius 24.954
rwrist 82.9617
rhand -34.2973 -59.0381
rfingers 7.12502
rthumb -7.46657 1351.11
lclavicle 4.37326e-014 4.92986e-014
lhumerus -32.3963 -4.87626 87.7702
lradius 111.422
lwrist 76.5415
lhand -32.9249 16.2739
lfingers 7.12502
lthumb -6.14167 46.1649
rfemur -21.4585 15.7459 19.0903
rtibia 9.59154
rfoot -12.7669 -25.0608
rtoes 3.22306
lfemur -19.6525 -42.9415 5.55413
ltibia -1.31133
lfoot -12.6705 48.813
ltoes 2.72913
1772
root 0.780165 17.6454 8.58303 19.284 5.17185 -7.98561
lowerback 13.3736 5.00581 10.9856
upperback -0.357278 8.87248 6.4294
thorax -7.28966 4.00854 -0.887984
lowerneck -6.22099 -11.5146 -1.56286
upperneck 4.95606 -15.5038 4.03769
head 3.15033 -7.58249 0.796805
rclavicle -1.82882e-014 -2.38542e-014
rhumerus 61.7392 -6.82909 -53.0411
rradius 25.3774
rwrist 83.191
rhand -34.5133 -59.2228
rfingers 7.12502
rthumb -7.67503 1350.94
lclavicle -1.82882e-014 -2.38542e-014
lhumerus -32.3783 -4.90083 87.7712
lradius 111.399
lwrist 76.5149
lhand -32.8741 16.2233
lfingers 7.12502
lthumb -6.09271 46.1157
rfemur -21.4708 15.7584 19.0228
rtibia 9.55057
rfoot -12.8336 -25.0924
rtoes 3.33439
lfemur -19.7256 -42.916 5.54716
ltibia -1.28036
lfoot -12.4176 48.7555
ltoes 2.26014
1773
root 0.780811 17.6453 8.58331 19.2926 5.25072 -7.93923
lowerback 13.3487 4.9616 10.9608
upperback -0.338682 8.80703 6.46475
thorax -7.27009 3.98045 -0.823808
lowerneck -6.26308 -11.4772 -1.61909
upperneck 4.94501 -15.4481 4.0274
head 3.15682 -7.55604 0.802973
rclavicle -2.06736e-014 -7.31528e-014
rhumerus 61.5213 -6.47163 -51.9552
rradius 25.7929
rwrist 82.5728
rhand -34.5571 -59.3905
rfingers 7.12502
rthumb -7.7173 1350.77
lclavicle -2.06736e-014 -7.31528e-014
lhumerus -32.4111 -4.78871 87.7845
lradius 111.409
lwrist 76.4862
lhand -32.9188 16.2126
lfingers 7.12502
lthumb -6.13582 46.1037
rfemur -21.4174 15.7852 18.9585
rtibia 9.44487
rfoot -12.8314 -25.2052
rtoes 3.40279
lfemur -19.8005 -42.9625 5.55311
ltibia -1.25224
lfoot -12.5752 48.6972
ltoes 2.51412
1774
root 0.781815 17.6453 8.58341 19.2927 5.34024 -7.90716
lowerback 13.3383 4.90284 10.9631
upperback -0.325064 8.72963 6.50226
thorax -7.26163 3.9447 -0.771316
lowerneck -6.28255 -11.366 -1.43855
upperneck 4.87021 -15.2976 3.82109
head 3.09375 -7.48712 0.722996
rclavicle -1.13705e-013 -8.90555e-014
rhumerus 61.2055 -5.74766 -49.8017
rradius 26.3231
rwrist 79.8098
rhand -34.5024 -59.8489
rfingers 7.12502
rthumb -7.66453 1350.31
lclavicle -1.13705e-013 -8.90555e-014
lhumerus -32.4729 -4.6657 87.7729
lradius 111.425
lwrist 76.4863
lhand -32.9868 16.1956
lfingers 7.12502
lthumb -6.20147 46.0848
rfemur -21.3616 15.8201 18.9199
rtibia 9.36828
rfoot -12.858 -25.3483
rtoes 3.41912
lfemur -19.8783 -43.0873 5.597
ltibia -1.24131
lfoot -12.8804 48.7184
ltoes 3.0626
1775
root 0.782259 17.645 8.58367 19.3108 5.36021 -7.84962
lowerback 13.3578 4.8809 10.937
upperback -0.329615 8.70152 6.51289
thorax -7.28548 3.93092 -0.744109
lowerneck -6.41811 -11.3384 -1.68221
upperneck 5.08722 -15.2636 4.04443
head 3.23691 -7.45976 0.81387
rclavicle -1.59028e-015 -7.15625e-014
rhumerus 61.3474 -6.08156 -51.3245
rradius 26.2807
rwrist 79.7686
rhand -33.9207 -59.9738
rfingers 7.12502
rthumb -7.10304 1350.17
lclavicle -1.59028e-015 -7.15625e-014
lhumerus -32.5549 -4.631 87.7827
lradius 111.434
lwrist 76.5323
lhand -33.1136 16.1444
lfingers 7.12502
lthumb -6.32385 46.03
rfemur -21.3678 15.8978 18.834
rtibia 9.36593
rfoot -12.9235 -25.4478
rtoes 3.61739
lfemur -19.9271 -43.1668 5.57566
ltibia -1.23787
lfoot -12.847 48.769
ltoes 2.99592
1776
root 0.781699 17.6443 8.58375 19.3268 5.33088 -7.82258
lowerback 13.3854 4.881 10.8573
upperback -0.335486 8.69962 6.56308
thorax -7.32752 3.93189 -0.652244
lowerneck -6.48346 -11.3086 -1.91452
upperneck 5.2195 -15.2204 4.20838
head 3.33106 -7.43274 0.893556
rclavicle 4.77083e-015 3.81667e-014
rhumerus 61.068 -4.58605 -46.8019
rradius 26.9219
rwrist 72.6224
rhand -32.4973 -60.9803
rfingers 7.12502
rthumb -5.72889 1170.88
lclavicle 4.77083e-015 3.81667e-014
lhumerus -32.654 -4.59047 87.8207
lradius 111.453
lwrist 76.6107
lhand -33.273 16.2477
lfingers 7.12502
lthumb -6.47775 46.1287
rfemur -21.3827 15.9688 18.7842
rtibia 9.3557
rfoot -12.9119 -25.5018
rtoes 3.71091
lfemur -19.9138 -43.0836 5.5165
ltibia -1.23967
lfoot -12.6483 48.7153
ltoes 2.64865
